<?xml version="1.0" standalone="no"?>
<!DOCTYPE svg PUBLIC "-//W3C//DTD SVG 20010904//EN"
 "http://www.w3.org/TR/2001/REC-SVG-20010904/DTD/svg10.dtd">
<svg version="1.0" xmlns="http://www.w3.org/2000/svg"
 width="1280.000000pt" height="1280.000000pt" viewBox="0 0 1280.000000 1280.000000"
 preserveAspectRatio="xMidYMid meet">
<g transform="translate(0.000000,1280.000000) scale(0.100000,-0.100000)"
stroke="none">
<path d="M6028 12076 c-2 -184 -5 -337 -8 -339 -3 -3 -75 -12 -160 -21 -1101
-114 -1856 -586 -2229 -1395 -194 -421 -263 -1003 -185 -1564 122 -884 580
-1495 1425 -1901 209 -100 475 -204 834 -325 168 -57 305 -109 313 -118 9 -13
12 -396 12 -1837 0 -1039 -4 -1827 -9 -1835 -21 -33 -475 47 -718 128 -704
232 -1021 687 -1083 1551 -5 80 -10 196 -10 258 l0 112 -27 0 c-56 0 -702 19
-835 25 l-138 6 0 -188 c0 -1238 462 -2100 1369 -2553 148 -74 208 -99 373
-155 254 -88 576 -156 900 -191 112 -12 156 -21 166 -32 9 -12 12 -160 12
-664 l0 -648 370 0 370 0 0 641 c0 390 4 647 10 658 8 15 28 19 117 25 402 26
821 113 1153 239 501 191 912 510 1186 922 233 349 378 796 424 1300 17 185
14 608 -5 745 -75 543 -296 1004 -657 1372 -448 456 -1102 762 -2000 937 -87
17 -166 31 -177 31 -11 0 -27 7 -35 16 -14 14 -16 183 -16 1717 0 961 4 1708
9 1716 11 17 111 10 296 -20 582 -95 962 -326 1157 -704 107 -209 155 -416
174 -752 l7 -123 31 -4 c17 -3 241 -8 499 -11 l467 -6 0 118 c-1 734 -253
1373 -717 1814 -419 399 -1049 643 -1816 704 -70 6 -90 11 -97 26 -6 10 -10
150 -10 338 l0 321 -370 0 -369 0 -3 -334z m-4 -1372 c3 -9 6 -728 6 -1598 0
-1270 -3 -1586 -13 -1600 -12 -16 -23 -13 -172 39 -258 92 -380 142 -550 225
-504 246 -745 540 -834 1016 -80 424 -43 852 99 1149 80 168 246 359 404 465
217 145 506 246 861 300 155 24 191 24 199 4z m890 -4484 c446 -92 830 -239
1116 -428 135 -89 329 -276 403 -388 103 -157 177 -343 213 -539 23 -123 26
-532 5 -685 -44 -321 -122 -549 -257 -753 -254 -382 -703 -609 -1375 -692
-164 -20 -235 -20 -243 1 -8 20 -8 3468 0 3488 8 21 22 20 138 -4z"/>
</g>
</svg>
