<svg width="307" height="101" viewBox="0 0 307 101" fill="none" xmlns="http://www.w3.org/2000/svg">
<path fill-rule="evenodd" clip-rule="evenodd" d="M14.5528 44.4919L20.5232 37.9343L33.3761 60.4293H50.6239L30.2251 26.7283L50.6239 0H32.6298L19.6111 18.9672L14.5528 26.6453V0H0V60.4293H14.5528V44.4919ZM77.6151 56.4035C78.002 58.1743 78.4443 59.5162 78.9418 60.4293H92.9142V59.7237C91.698 57.5379 91.0623 54.3836 91.007 50.2609V30.3807C90.9241 25.5109 89.2242 21.6787 85.9073 18.8842C82.5904 16.0896 78.0711 14.6923 72.3495 14.6923C66.6279 14.6923 61.9152 16.0481 58.2113 18.7596C54.5351 21.4712 52.697 24.999 52.697 29.3431H66.6694C66.6694 26.0781 68.3278 24.4456 71.6447 24.4456C75.2103 24.4456 76.9932 26.507 76.9932 30.6297V32.9954H72.6812C65.8263 32.9954 60.6022 34.2405 57.0089 36.7307C53.4156 39.2209 51.619 42.9009 51.619 47.7707C51.619 51.6444 53.0978 54.8678 56.0553 57.441C59.0129 59.9866 62.6062 61.2594 66.8352 61.2594C71.4512 61.2594 75.0445 59.6407 77.6151 56.4035ZM74.5055 50.1779C73.3722 50.925 71.9349 51.2985 70.1935 51.2985C68.8668 51.2985 67.775 50.9111 66.9181 50.1364C66.0613 49.334 65.6328 48.2964 65.6328 47.0236C65.6328 42.6519 68.0652 40.4661 72.93 40.4661H76.9932V47.6462C76.4956 48.5869 75.6664 49.4308 74.5055 50.1779ZM140.429 38.3079C140.429 45.2805 138.853 50.8558 135.702 55.0338C132.579 59.1842 128.35 61.2594 123.015 61.2594C118.896 61.2594 115.51 59.7514 112.857 56.7355V77.6948H98.8846V15.5224H111.945L112.359 19.6727C115.041 16.3524 118.565 14.6923 122.932 14.6923C128.46 14.6923 132.758 16.7398 135.826 20.8348C138.894 24.9022 140.429 30.5052 140.429 37.6438V38.3079ZM126.456 37.4363C126.456 29.4676 124.134 25.4832 119.491 25.4832C116.174 25.4832 113.963 26.673 112.857 29.0526V46.7331C114.073 49.2233 116.312 50.4684 119.574 50.4684C124.024 50.4684 126.318 46.6224 126.456 38.9304V37.4363ZM161.366 61.2594C166.397 61.2594 170.391 59.364 173.349 55.5734L173.763 60.4293H186.865V15.5224H172.81V47.0236C171.455 49.3202 169.175 50.4684 165.969 50.4684C162.237 50.4684 160.371 48.5454 160.371 44.6994V15.5224H146.399V44.6164C146.399 49.9842 147.657 54.1069 150.172 56.9845C152.715 59.8344 156.446 61.2594 161.366 61.2594ZM218.044 47.8122C218.044 46.6224 217.422 45.6678 216.178 44.9484C214.934 44.229 212.571 43.482 209.088 42.7072C205.605 41.9325 202.731 40.9226 200.464 39.6775C198.198 38.4047 196.47 36.8691 195.282 35.0706C194.093 33.2721 193.499 31.2107 193.499 28.8865C193.499 24.7638 195.199 21.3744 198.598 18.7181C201.453 16.4644 205.049 15.157 209.385 14.7957V4.59627H216.045V14.9287C220.1 15.4215 223.489 16.6846 226.211 18.7181C229.805 21.402 231.601 24.9299 231.601 29.3016H217.588C217.588 25.7046 215.694 23.9061 211.907 23.9061C210.442 23.9061 209.212 24.3211 208.217 25.1512C207.222 25.9536 206.725 26.9635 206.725 28.181C206.725 29.4261 207.333 30.436 208.549 31.2107C209.765 31.9855 211.7 32.6219 214.354 33.1199C217.035 33.618 219.384 34.2128 221.402 34.9046C228.146 37.2288 231.518 41.393 231.518 47.3972C231.518 51.4922 229.694 54.8263 226.046 57.3995C223.322 59.3352 219.988 60.5428 216.045 61.0224V71.2626H209.385V61.1514C206.565 60.9079 203.992 60.2521 201.667 59.1842C198.654 57.8007 196.304 55.9192 194.618 53.5397C192.932 51.1602 192.089 48.6561 192.089 46.0275H205.149C205.205 48.1027 205.896 49.6245 207.222 50.5929C208.549 51.5337 210.249 52.0041 212.322 52.0041C214.229 52.0041 215.653 51.6167 216.592 50.842C217.56 50.0672 218.044 49.0573 218.044 47.8122ZM254.363 15.5224V4.35788H240.391V15.5224H234.669V25.2342H240.391V47.5217C240.391 52.1424 241.538 55.5872 243.832 57.8561C246.127 60.1249 249.678 61.2594 254.488 61.2594C257.224 61.2594 259.85 60.8582 262.365 60.0558V50.0534C261.426 50.2194 260.265 50.3024 258.883 50.3024C257.086 50.3024 255.884 49.9704 255.276 49.3063C254.668 48.6423 254.363 47.4663 254.363 45.7785V25.2342H261.744V15.5224H254.363ZM292.549 60.4293C292.052 59.5162 291.609 58.1743 291.222 56.4035C288.652 59.6407 285.058 61.2594 280.442 61.2594C276.213 61.2594 272.62 59.9866 269.663 57.441C266.705 54.8678 265.226 51.6444 265.226 47.7707C265.226 42.9009 267.023 39.2209 270.616 36.7307C274.21 34.2405 279.434 32.9954 286.288 32.9954H290.6V30.6297C290.6 26.507 288.818 24.4456 285.252 24.4456C281.935 24.4456 280.277 26.0781 280.277 29.3431H266.304C266.304 24.999 268.142 21.4712 271.819 18.7596C275.522 16.0481 280.235 14.6923 285.957 14.6923C291.678 14.6923 296.198 16.0896 299.515 18.8842C302.831 21.6787 304.531 25.5109 304.614 30.3807V50.2609C304.67 54.3836 305.305 57.5379 306.521 59.7237V60.4293H292.549ZM283.801 51.2985C285.542 51.2985 286.98 50.925 288.113 50.1779C289.274 49.4308 290.103 48.5869 290.6 47.6462V40.4661H286.537C281.672 40.4661 279.24 42.6519 279.24 47.0236C279.24 48.2964 279.669 49.334 280.525 50.1364C281.382 50.9111 282.474 51.2985 283.801 51.2985Z" fill="black"/>
<path d="M60.459 94.0039C60.459 93.8008 60.4277 93.6185 60.3652 93.457C60.3079 93.2904 60.1986 93.1393 60.0371 93.0039C59.8757 92.8633 59.6491 92.7253 59.3574 92.5898C59.0658 92.4544 58.6882 92.3138 58.2246 92.168C57.709 92.0013 57.2194 91.8138 56.7559 91.6055C56.2975 91.3971 55.8913 91.1549 55.5371 90.8789C55.1882 90.5977 54.9121 90.2721 54.709 89.9023C54.5111 89.5326 54.4121 89.1029 54.4121 88.6133C54.4121 88.1393 54.5163 87.7096 54.7246 87.3242C54.9329 86.9336 55.2246 86.6003 55.5996 86.3242C55.9746 86.043 56.4173 85.8268 56.9277 85.6758C57.4434 85.5247 58.0085 85.4492 58.623 85.4492C59.4616 85.4492 60.1934 85.6003 60.8184 85.9023C61.4434 86.2044 61.9277 86.6185 62.2715 87.1445C62.6204 87.6706 62.7949 88.2721 62.7949 88.9492H60.4668C60.4668 88.6159 60.3965 88.3242 60.2559 88.0742C60.1204 87.819 59.9121 87.6185 59.6309 87.4727C59.3548 87.3268 59.0059 87.2539 58.584 87.2539C58.1777 87.2539 57.8392 87.3164 57.5684 87.4414C57.2975 87.5612 57.0944 87.7253 56.959 87.9336C56.8236 88.1367 56.7559 88.3659 56.7559 88.6211C56.7559 88.8138 56.8027 88.9883 56.8965 89.1445C56.9954 89.3008 57.1413 89.4466 57.334 89.582C57.5267 89.7174 57.7637 89.8451 58.0449 89.9648C58.3262 90.0846 58.6517 90.2018 59.0215 90.3164C59.6413 90.5039 60.1855 90.7148 60.6543 90.9492C61.1283 91.1836 61.5241 91.4466 61.8418 91.7383C62.1595 92.0299 62.3991 92.3607 62.5605 92.7305C62.722 93.1003 62.8027 93.5195 62.8027 93.9883C62.8027 94.4831 62.7064 94.9258 62.5137 95.3164C62.321 95.707 62.0423 96.0378 61.6777 96.3086C61.3132 96.5794 60.8783 96.7852 60.373 96.9258C59.8678 97.0664 59.3027 97.1367 58.6777 97.1367C58.1152 97.1367 57.5605 97.0638 57.0137 96.918C56.4668 96.7669 55.9694 96.5404 55.5215 96.2383C55.0788 95.9362 54.7246 95.5508 54.459 95.082C54.1934 94.6133 54.0605 94.0586 54.0605 93.418H56.4121C56.4121 93.7721 56.4668 94.0716 56.5762 94.3164C56.6855 94.5612 56.8392 94.7591 57.0371 94.9102C57.2402 95.0612 57.4798 95.1706 57.7559 95.2383C58.0371 95.306 58.3444 95.3398 58.6777 95.3398C59.084 95.3398 59.4173 95.2826 59.6777 95.168C59.9434 95.0534 60.1387 94.8945 60.2637 94.6914C60.3939 94.4883 60.459 94.2591 60.459 94.0039ZM68.3468 85.6055H70.3312L73.253 93.957L76.1749 85.6055H78.1593L74.0499 96.9805H72.4562L68.3468 85.6055ZM67.2765 85.6055H69.253L69.6124 93.7461V96.9805H67.2765V85.6055ZM77.253 85.6055H79.2374V96.9805H76.8937V93.7461L77.253 85.6055ZM88.9377 87.5508L85.844 96.9805H83.3518L87.5784 85.6055H89.1643L88.9377 87.5508ZM91.508 96.9805L88.4065 87.5508L88.1565 85.6055H89.758L94.008 96.9805H91.508ZM91.3674 92.7461V94.582H85.3596V92.7461H91.3674ZM97.9427 85.6055H102.185C103.055 85.6055 103.802 85.7357 104.427 85.9961C105.057 86.2565 105.542 86.6419 105.88 87.1523C106.219 87.6628 106.388 88.2904 106.388 89.0352C106.388 89.6445 106.284 90.168 106.076 90.6055C105.872 91.0378 105.583 91.3997 105.208 91.6914C104.839 91.9779 104.404 92.207 103.904 92.3789L103.161 92.7695H99.474L99.4584 90.9414H102.201C102.612 90.9414 102.953 90.8685 103.224 90.7227C103.495 90.5768 103.698 90.3737 103.833 90.1133C103.974 89.8529 104.044 89.5508 104.044 89.207C104.044 88.8424 103.977 88.5273 103.841 88.2617C103.706 87.9961 103.5 87.793 103.224 87.6523C102.948 87.5117 102.602 87.4414 102.185 87.4414H100.286V96.9805H97.9427V85.6055ZM104.302 96.9805L101.708 91.9102L104.185 91.8945L106.81 96.8711V96.9805H104.302ZM115.69 85.6055V96.9805H113.354V85.6055H115.69ZM119.19 85.6055V87.4414H109.909V85.6055H119.19ZM132.192 85.6055V96.9805H129.848V85.6055H132.192ZM136.723 90.4648V92.293H131.551V90.4648H136.723ZM137.27 85.6055V87.4414H131.551V85.6055H137.27ZM144.002 85.6055V96.9805H141.666V85.6055H144.002ZM158.335 85.6055V96.9805H155.991L151.421 89.3555V96.9805H149.077V85.6055H151.421L155.999 93.2383V85.6055H158.335ZM168.02 87.5508L164.926 96.9805H162.434L166.66 85.6055H168.246L168.02 87.5508ZM170.59 96.9805L167.488 87.5508L167.238 85.6055H168.84L173.09 96.9805H170.59ZM170.449 92.7461V94.582H164.441V92.7461H170.449ZM186.282 85.6055V96.9805H183.939L179.368 89.3555V96.9805H177.025V85.6055H179.368L183.946 93.2383V85.6055H186.282ZM197.795 93.207H200.131C200.084 93.9727 199.873 94.6523 199.498 95.2461C199.129 95.8398 198.61 96.3034 197.944 96.6367C197.282 96.9701 196.485 97.1367 195.553 97.1367C194.824 97.1367 194.17 97.0117 193.592 96.7617C193.014 96.5065 192.519 96.1419 192.108 95.668C191.701 95.194 191.392 94.6211 191.178 93.9492C190.965 93.2773 190.858 92.5247 190.858 91.6914V90.9023C190.858 90.069 190.967 89.3164 191.186 88.6445C191.41 87.9674 191.728 87.3919 192.139 86.918C192.556 86.444 193.053 86.0794 193.631 85.8242C194.209 85.569 194.855 85.4414 195.569 85.4414C196.517 85.4414 197.316 85.6133 197.967 85.957C198.623 86.3008 199.131 86.7747 199.491 87.3789C199.855 87.9831 200.074 88.6706 200.147 89.4414H197.803C197.777 88.9831 197.686 88.5951 197.53 88.2773C197.373 87.9544 197.136 87.7122 196.819 87.5508C196.506 87.3841 196.09 87.3008 195.569 87.3008C195.178 87.3008 194.837 87.3737 194.545 87.5195C194.254 87.6654 194.009 87.8867 193.811 88.1836C193.613 88.4805 193.465 88.8555 193.366 89.3086C193.272 89.7565 193.225 90.2826 193.225 90.8867V91.6914C193.225 92.2799 193.269 92.7982 193.358 93.2461C193.446 93.6888 193.582 94.0638 193.764 94.3711C193.951 94.6732 194.191 94.9023 194.483 95.0586C194.78 95.2096 195.136 95.2852 195.553 95.2852C196.043 95.2852 196.446 95.207 196.764 95.0508C197.082 94.8945 197.324 94.6628 197.491 94.3555C197.662 94.0482 197.764 93.6654 197.795 93.207ZM212.183 95.1523V96.9805H206.128V95.1523H212.183ZM206.894 85.6055V96.9805H204.55V85.6055H206.894ZM211.394 90.2383V92.0195H206.128V90.2383H211.394ZM212.175 85.6055V87.4414H206.128V85.6055H212.175Z" fill="#52555F"/>
</svg>
