<svg aria-hidden="true" style="position:absolute;width:0;height:0;overflow:hidden" xmlns="http://www.w3.org/2000/svg">
    <defs>
        <symbol id="google-icon" viewBox="0 0 32 32">
            <path fill="#2196f3" style="fill:var(--color2, #2196f3)"
                d="M30.567 13.038c.136 0 .246.115.246.258V16c0 1.012-.09 2.002-.262 2.962C29.22 26.419 22.953 32.054 15.44 32 7.01 31.939.264 24.8.282 15.964.301 7.144 7.128 0 15.547 0c4.125 0 7.867 1.715 10.615 4.501a.267.267 0 0 1 .004.369l-3.65 3.826a.237.237 0 0 1-.342.005c-1.725-1.721-4.058-2.777-6.627-2.777-5.305 0-9.577 4.446-9.614 10.007-.036 5.597 4.282 10.146 9.614 10.146 4.326 0 7.985-2.995 9.191-7.115h-8.945a.252.252 0 0 1-.246-.258v-5.408c0-.142.11-.258.246-.258h14.774z" />
            <path fill="#1e88e5" style="fill:var(--color3, #1e88e5)"
                d="M30.567 13.038h-1.843c.136 0 .246.115.246.258V16c0 1.012-.09 2.002-.262 2.962-1.27 7.114-7.033 12.57-14.083 13.009.27.017.541.026.815.028 7.513.054 13.78-5.581 15.111-13.038.172-.96.262-1.95.262-2.962v-2.704a.252.252 0 0 0-.246-.258z" />
            <path fill="#f44336" style="fill:var(--color4, #f44336)"
                d="M6.815 11.78 2.179 8.269C4.78 3.338 9.792 0 15.547 0c4.125 0 7.867 1.715 10.615 4.501a.267.267 0 0 1 .004.369l-3.65 3.826a.237.237 0 0 1-.342.005c-1.724-1.721-4.058-2.777-6.627-2.777-3.872 0-7.209 2.399-8.732 5.857z" />
            <path fill="#e53935" style="fill:var(--color5, #e53935)"
                d="m5.477 10.767 1.338 1.014c1.39-3.156 4.292-5.429 7.732-5.802l.077-.009a9.336 9.336 0 0 0-.92-.046c-3.498 0-6.546 1.933-8.228 4.843zM24.319 4.501a.267.267 0 0 1 .004.369l-2.962 3.105c.284.226.555.468.813.726a.237.237 0 0 0 .342-.005l3.65-3.826a.267.267 0 0 0-.004-.369C23.414 1.715 19.672 0 15.547 0c-.31 0-.617.011-.922.03 3.759.235 7.152 1.894 9.694 4.471z" />
            <path fill="#4caf50" style="fill:var(--color6, #4caf50)"
                d="M26.745 26.874C23.957 30.027 19.972 32 15.547 32c-5.976 0-11.151-3.6-13.656-8.844l4.733-3.4c1.42 3.704 4.881 6.32 8.923 6.32 2.537 0 4.844-1.03 6.562-2.713l4.636 3.51z" />
            <path fill="#43a047" style="fill:var(--color7, #43a047)"
                d="m6.624 19.756-1.396 1.003c1.621 3.165 4.809 5.318 8.476 5.318a9.3 9.3 0 0 0 .919-.046c-3.64-.364-6.689-2.855-8-6.274zM15.547 32c4.425 0 8.41-1.973 11.198-5.126l-1.135-.86c-2.618 3.414-6.544 5.679-10.982 5.957.304.019.611.029.919.029z" />
            <path fill="#ffc107" style="fill:var(--color8, #ffc107)"
                d="M5.934 16c0 1.328.245 2.595.69 3.756l-4.733 3.4A16.55 16.55 0 0 1 .282 16c0-2.804.688-5.439 1.897-7.731l4.636 3.511A10.437 10.437 0 0 0 5.934 16z" />
            <path fill="#ffb300" style="fill:var(--color9, #ffb300)"
                d="m5.228 20.759 1.396-1.003A10.48 10.48 0 0 1 5.934 16c0-1.507.316-2.937.881-4.22l-1.338-1.014a10.437 10.437 0 0 0-1.386 5.164 10.437 10.437 0 0 0 1.137 4.829z" />
        </symbol>
        <symbol id="delete-icon" viewBox="0 0 32 32">
            <path fill="#52555f" style="fill:var(--color11, #52555f)"
                d="m28.992 7.153-.707-2.118a1.97 1.97 0 0 0-1.871-1.349h-5.938V1.753C20.476.787 19.69 0 18.724 0h-5.438c-.966 0-1.752.786-1.752 1.753v1.933H5.596c-.85 0-1.603.542-1.872 1.349l-.707 2.118A1.588 1.588 0 0 0 4.521 9.24h.739l1.625 20.1A2.908 2.908 0 0 0 9.767 32h12.804a2.909 2.909 0 0 0 2.882-2.66l1.625-20.1h.409c.508 0 .989-.246 1.286-.658s.379-.947.218-1.429zM13.41 1.875h5.191v1.811H13.41V1.875zm10.175 27.314a1.023 1.023 0 0 1-1.013.936H9.768c-.525 0-.97-.411-1.013-.936L7.141 9.24h18.056l-1.613 19.949zM4.924 7.365l.579-1.737a.098.098 0 0 1 .093-.067h20.818c.042 0 .079.027.093.067l.579 1.737H4.924z" />
            <path fill="#52555f" style="fill:var(--color11, #52555f)"
                d="M20.595 29.122a.937.937 0 0 0 .985-.888l.88-16.9a.938.938 0 0 0-1.872-.098l-.88 16.9a.937.937 0 0 0 .887.985zM10.473 28.237c.027.5.441.886.935.886l.052-.001a.937.937 0 0 0 .885-.987l-.922-16.9a.937.937 0 1 0-1.872.102l.922 16.9zM16.016 29.123c.518 0 .938-.42.938-.937v-16.9a.938.938 0 0 0-1.876 0v16.9c0 .518.42.937.938.937z" />
        </symbol>

        <symbol id="icon-logo" viewBox="0 0 93 32">
            <path fill="#fb7c2f" style="fill: var(--color1, #fb7c2f)"
                d="M14.452 5.161h17.548c4.561 0 8.258 3.697 8.258 8.258v10.323c0 4.561-3.697 8.258-8.258 8.258h-17.548c-4.561 0-8.258-3.697-8.258-8.258v-10.323c0-4.561 3.697-8.258 8.258-8.258z">
            </path>
            <path fill="#fb7c2f" style="fill: var(--color1, #fb7c2f)" opacity="0.2"
                d="M8.258 0h17.548c4.561 0 8.258 3.697 8.258 8.258v10.323c0 4.561-3.697 8.258-8.258 8.258h-17.548c-4.561 0-8.258-3.697-8.258-8.258v-10.323c0-4.561 3.697-8.258 8.258-8.258z">
            </path>
            <path fill="#000" style="fill: var(--color2, #000)"
                d="M23.88 21.234l1.327-1.456 2.857 4.995h3.834l-4.534-7.483 4.534-5.935h-3.999l-2.894 4.211-1.124 1.705v-5.916h-3.235v13.418h3.235v-3.539zM38.929 23.878c0.086 0.393 0.184 0.691 0.295 0.894h3.106v-0.157c-0.27-0.485-0.412-1.186-0.424-2.101v-4.414c-0.018-1.081-0.396-1.932-1.134-2.553s-1.742-0.931-3.013-0.931c-1.272 0-2.319 0.301-3.142 0.903-0.817 0.602-1.226 1.385-1.226 2.35h3.106c0-0.725 0.369-1.087 1.106-1.087 0.792 0 1.189 0.458 1.189 1.373v0.525h-0.958c-1.524 0-2.685 0.276-3.483 0.829s-1.198 1.37-1.198 2.451c0 0.86 0.329 1.576 0.986 2.147 0.657 0.565 1.456 0.848 2.396 0.848 1.026 0 1.825-0.359 2.396-1.078zM38.237 22.496c-0.252 0.166-0.571 0.249-0.958 0.249-0.295 0-0.538-0.086-0.728-0.258-0.19-0.178-0.286-0.409-0.286-0.691 0-0.971 0.541-1.456 1.622-1.456h0.903v1.594c-0.111 0.209-0.295 0.396-0.553 0.562zM52.89 19.861c0 1.548-0.35 2.786-1.051 3.714-0.694 0.922-1.634 1.382-2.82 1.382-0.915 0-1.668-0.335-2.258-1.005v4.654h-3.106v-13.805h2.903l0.092 0.922c0.596-0.737 1.379-1.106 2.35-1.106 1.229 0 2.184 0.455 2.866 1.364 0.682 0.903 1.023 2.147 1.023 3.732v0.148zM49.784 19.667c0-1.769-0.516-2.654-1.548-2.654-0.737 0-1.229 0.264-1.474 0.793v3.926c0.27 0.553 0.768 0.829 1.493 0.829 0.989 0 1.499-0.854 1.53-2.562v-0.332zM58.576 24.957c1.118 0 2.006-0.421 2.663-1.263l0.092 1.078h2.912v-9.971h-3.124v6.994c-0.301 0.51-0.808 0.765-1.521 0.765-0.829 0-1.244-0.427-1.244-1.281v-6.478h-3.106v6.46c0 1.192 0.28 2.107 0.839 2.746 0.565 0.633 1.395 0.949 2.488 0.949zM71.173 21.971c0-0.264-0.138-0.476-0.415-0.636s-0.802-0.326-1.576-0.498c-0.774-0.172-1.413-0.396-1.917-0.673-0.504-0.283-0.888-0.624-1.152-1.023s-0.396-0.857-0.396-1.373c0-0.915 0.378-1.668 1.134-2.258 0.635-0.5 1.434-0.791 2.397-0.871v-2.265h1.48v2.294c0.901 0.109 1.655 0.39 2.26 0.841 0.799 0.596 1.198 1.379 1.198 2.35h-3.115c0-0.799-0.421-1.198-1.262-1.198-0.326 0-0.599 0.092-0.82 0.276-0.221 0.178-0.332 0.402-0.332 0.673 0 0.276 0.135 0.501 0.405 0.673s0.7 0.313 1.29 0.424c0.596 0.111 1.118 0.243 1.567 0.396 1.499 0.516 2.249 1.441 2.249 2.774 0 0.909-0.405 1.65-1.216 2.221-0.605 0.43-1.346 0.698-2.223 0.804v2.274h-1.48v-2.245c-0.627-0.054-1.199-0.2-1.715-0.437-0.67-0.307-1.192-0.725-1.567-1.253s-0.562-1.084-0.562-1.668h2.903c0.012 0.461 0.166 0.799 0.461 1.014 0.295 0.209 0.673 0.313 1.133 0.313 0.424 0 0.74-0.086 0.949-0.258 0.215-0.172 0.323-0.396 0.323-0.673zM80.278 14.801v-2.479h-3.106v2.479h-1.272v2.156h1.272v4.949c0 1.026 0.255 1.791 0.765 2.295s1.299 0.756 2.368 0.756c0.608 0 1.192-0.089 1.751-0.267v-2.221c-0.209 0.037-0.467 0.055-0.774 0.055-0.399 0-0.667-0.074-0.802-0.221s-0.203-0.409-0.203-0.783v-4.562h1.64v-2.156h-1.64zM89.798 24.772c-0.111-0.203-0.209-0.501-0.295-0.894-0.571 0.719-1.37 1.078-2.396 1.078-0.94 0-1.739-0.283-2.396-0.848-0.657-0.571-0.986-1.287-0.986-2.147 0-1.081 0.399-1.898 1.198-2.451s1.96-0.829 3.483-0.829h0.958v-0.525c0-0.915-0.396-1.373-1.189-1.373-0.737 0-1.106 0.363-1.106 1.087h-3.106c0-0.965 0.408-1.748 1.226-2.35 0.823-0.602 1.871-0.903 3.142-0.903s2.276 0.31 3.013 0.931c0.737 0.62 1.115 1.471 1.133 2.553v4.414c0.012 0.915 0.154 1.616 0.424 2.101v0.157h-3.106zM87.853 22.745c0.387 0 0.706-0.083 0.958-0.249 0.258-0.166 0.442-0.353 0.553-0.562v-1.594h-0.903c-1.081 0-1.622 0.485-1.622 1.456 0 0.283 0.095 0.513 0.286 0.691 0.19 0.172 0.433 0.258 0.728 0.258z">
            </path>
        </symbol>
        <symbol id="icon-kapusta" viewBox="0 0 125 32">
            <path
                d="m5.915 18.067 2.427-2.663 5.225 9.134h7.011l-8.292-13.685L20.578 0h-7.314L7.972 7.702 5.916 10.82V0H.001v24.538h5.915v-6.472zm25.634 4.837c.157.719.337 1.264.539 1.635h5.68v-.287c-.494-.888-.753-2.168-.775-3.843v-8.073c-.034-1.977-.725-3.534-2.073-4.668s-3.185-1.702-5.511-1.702-4.241.551-5.747 1.652c-1.494 1.101-2.241 2.534-2.241 4.298h5.68c0-1.326.674-1.989 2.022-1.989 1.449 0 2.174.837 2.174 2.511v.961h-1.753c-2.786 0-4.91.506-6.371 1.517s-2.191 2.506-2.191 4.483c0 1.573.601 2.882 1.803 3.927 1.202 1.034 2.663 1.55 4.382 1.55 1.876 0 3.337-.657 4.382-1.972zm-1.264-2.528c-.461.303-1.045.455-1.753.455-.539 0-.983-.157-1.331-.472-.348-.326-.523-.747-.523-1.264 0-1.775.989-2.663 2.966-2.663h1.652v2.916c-.202.382-.539.725-1.011 1.028zm26.797-4.82c0 2.831-.64 5.095-1.921 6.792-1.27 1.685-2.989 2.528-5.157 2.528-1.674 0-3.05-.612-4.129-1.837v8.511h-5.68V6.304h5.309l.169 1.685c1.09-1.348 2.522-2.022 4.298-2.022 2.247 0 3.994.831 5.241 2.494 1.247 1.652 1.871 3.927 1.871 6.826v.27zm-5.68-.354c0-3.236-.944-4.854-2.831-4.854-1.348 0-2.247.483-2.697 1.449v7.179c.494 1.011 1.404 1.517 2.73 1.517 1.809 0 2.741-1.562 2.798-4.685v-.607zm14.191 9.673c2.045 0 3.668-.77 4.871-2.309l.168 1.972h5.326V6.303h-5.713v12.792c-.55.933-1.477 1.399-2.781 1.399-1.517 0-2.275-.781-2.275-2.343V6.303h-5.68v11.814c0 2.18.511 3.854 1.534 5.022 1.034 1.157 2.55 1.736 4.55 1.736zm23.038-5.46c0-.483-.253-.871-.758-1.163s-1.467-.596-2.882-.91c-1.415-.315-2.584-.725-3.506-1.23-.921-.517-1.623-1.14-2.107-1.871s-.724-1.567-.724-2.511c0-1.674.691-3.05 2.073-4.129 1.16-.915 2.622-1.446 4.384-1.593V1.866h2.707v4.196c1.648.2 3.026.713 4.133 1.539 1.46 1.09 2.191 2.522 2.191 4.298h-5.696c0-1.461-.77-2.191-2.309-2.191-.595 0-1.096.168-1.5.506-.404.326-.607.736-.607 1.23 0 .506.247.916.741 1.23s1.281.573 2.36.775a20.37 20.37 0 0 1 2.865.725c2.741.944 4.112 2.635 4.112 5.073 0 1.663-.742 3.017-2.225 4.062-1.107.786-2.462 1.276-4.065 1.471v4.158h-2.707v-4.106c-1.146-.099-2.192-.365-3.137-.799-1.224-.562-2.179-1.326-2.865-2.292s-1.028-1.983-1.028-3.05h5.309c.022.843.303 1.461.842 1.854.539.382 1.23.573 2.073.573.775 0 1.354-.157 1.736-.472a1.5 1.5 0 0 0 .59-1.23zm14.764-13.112V1.769h-5.68v4.534h-2.326v3.944h2.326v9.05c0 1.876.466 3.275 1.398 4.196s2.376 1.382 4.332 1.382a10.48 10.48 0 0 0 3.202-.489v-4.062a8.374 8.374 0 0 1-1.415.101c-.731 0-1.219-.135-1.467-.404s-.37-.747-.37-1.433v-8.342h3V6.302h-3zm15.521 18.235c-.202-.371-.382-.916-.539-1.635-1.045 1.315-2.506 1.972-4.382 1.972-1.719 0-3.18-.517-4.382-1.55-1.202-1.045-1.803-2.354-1.803-3.927 0-1.977.731-3.472 2.191-4.483s3.584-1.517 6.37-1.517h1.753v-.961c0-1.674-.725-2.511-2.174-2.511-1.349 0-2.023.663-2.023 1.989h-5.68c0-1.764.748-3.197 2.242-4.298 1.505-1.101 3.421-1.652 5.746-1.652s4.163.567 5.511 1.702c1.348 1.135 2.039 2.691 2.073 4.668v8.073c.022 1.674.281 2.955.775 3.843v.287h-5.68zm-3.556-3.707c.708 0 1.292-.152 1.753-.455.472-.303.809-.646 1.011-1.028v-2.916h-1.652c-1.977 0-2.966.888-2.966 2.663 0 .517.174.938.523 1.264.348.315.792.472 1.331.472z" />
        </symbol>
        <symbol id="icon-cabbage" viewBox="0 0 34 32">
            <path fill="#b1bcf4"
                d="M34.313 15.941c0 1.532-.332 3.036-.994 4.499a28.002 28.002 0 0 1-2.791 4.819 2.325 2.325 0 0 1-.151.187l1.307 1.624c.091.113.101.27.025.394-.035.056-.86 1.391-2.18 2.522-1.324 1.134-2.625 1.632-2.68 1.652a.345.345 0 0 1-.349-.064l-1.129-.998a.35.35 0 0 1-.068-.082c-.993.51-2.842 1.195-5.885 1.442-2.695.219-4.905-.122-6.568-1.013-.089-.048-.235-.118-.392-.194-.269-.131-.548-.265-.7-.359-.15-.092-.323-.191-.514-.302-1.487-.859-4.254-2.458-6.363-6.11-1.787-3.096-1.973-4.636-2.137-5.995-.097-.808-.182-1.506-.603-2.446-1.07-2.39-1.946-2.868-1.954-2.872a.348.348 0 0 1-.129-.502c.173-.25 1.082-1.5 1.96-1.514.426-.007.717.141.929.249.218.111.223.107.286.06.067-.05.103-.141.158-.286.13-.345.326-.867 1.334-.891.803-.019 1.251.404 1.577.749.34-.681 1.268-2.428 2.484-3.814.785-.895 1.703-1.597 2.335-2.029.482-.329.8-.527 1.017-.641-.239-.441-.342-.742-.422-.975-.094-.274-.146-.425-.365-.661-.731-.788-.156-2.075-.049-2.231a.369.369 0 0 1 .262-.157c.197-.022.318.09.539.294.367.339 1.131 1.045 2.428 1.383 1.162.303 2.512.24 3.703.184.752-.035 1.462-.069 2.024-.001 1.835.221 5.655.682 8.794 3.497a17.52 17.52 0 0 1 3.732 4.783c.023.03.041.064.052.1.223.431.422.865.593 1.298.589 1.485.883 2.954.883 4.398zm-.879 1.882c.48-2.561-.095-5.054-1.194-7.228-.307-.151-1.334-.587-2.887-.554-1.83.038-2.408.355-2.414.358-.162.092-.372.04-.467-.12s-.049-.365.109-.464c.068-.043.721-.417 2.758-.459a7.708 7.708 0 0 1 2.388.309 16.624 16.624 0 0 0-3.132-3.794 11.563 11.563 0 0 0-1.84-1.345c-.307.125-1.194.408-2.683.255-1.734-.179-2.68-.244-2.689-.245a.342.342 0 1 1 .047-.683c.01.001.965.067 2.713.247.764.079 1.344.031 1.743-.041-2.244-1.096-4.456-1.362-5.709-1.513-.504-.061-1.187-.029-1.909.005-1.24.058-2.646.124-3.909-.206A6.049 6.049 0 0 1 11.741.896c-.083.319-.127.77.114 1.03.319.344.408.604.511.905.097.285.219.639.601 1.256.352.569.814.583 1.539.558.479-.017 1.023-.035 1.503.244.84.489.647 1.085.52 1.478-.069.213-.129.399-.084.592.148.018.564-.109.873-.203.71-.216 1.682-.512 2.663-.352.548.09.883.254 1.055.517.201.307.117.634.049.896-.089.345-.081.412.063.511.549.379 1.051.485 1.745.632.293.062.624.132.997.232.583.156.99.455 1.211.889.336.66.243 1.61-.291 2.99a8.383 8.383 0 0 0-.561 2.905v.011c0 .298.139.567.357.863 1.899 1.979 2.97 4.158 3.068 6.305.019.415.003.852-.038 1.294.121.482.495.773.851.892.444.148 1.067.099 1.485-.481a27.379 27.379 0 0 0 2.722-4.701c.225-.498.405-.996.544-1.492-.165-.219-.97-1.232-2.357-2.166-.164.072-1.154.494-2.032.545-.438.025-1 .04-1.196-.033l.242-.642s-.008-.004-.028-.009c.008.002.202.043.943 0 .461-.027.979-.181 1.343-.311-1.808-1.042-2.453-1.195-2.459-1.197-.183-.041-.301-.223-.262-.407s.218-.302.402-.264c.075.015.787.181 2.809 1.359a11.445 11.445 0 0 1 2.793 2.282zm-6.639 13.095c.392-.174 1.342-.642 2.288-1.452s1.635-1.755 1.91-2.16l-1.033-1.283c-.361.47-.948 1.224-1.362 1.705a15.684 15.684 0 0 1-2.406 2.227.424.424 0 0 1-.068.039 3.97 3.97 0 0 1-.209.147l.88.778zm-.071-2.281c.41-.361.9-.829 1.353-1.356.277-.322.642-.781.959-1.187a2.024 2.024 0 0 1-.767-.104 2.02 2.02 0 0 1-.776-.468 23.635 23.635 0 0 1-.769 3.114zm-.995.793c.172-.469.996-2.803 1.212-4.95a2.102 2.102 0 0 1-.033-.415 9.536 9.536 0 0 0-.142-1.88c-.393-2.149-1.571-3.55-2.275-4.386a18.381 18.381 0 0 1-.415-.51 16.978 16.978 0 0 0-1.949-1.717c-2.87-2.175-4.243-2.04-4.902-1.975l-.096.009c-.171.015-.48.111-.806.212-.85.263-2.014.624-2.873.283-.793-.314-.864-1.115-.933-1.889-.049-.555-.101-1.129-.398-1.577-.637-.959-2.275-.476-3.143-.039-.343.173-.601.385-.828.573-.39.322-.793.654-1.401.502-.388-.097-.639-.366-.882-.626-.308-.329-.574-.614-1.124-.601-.545.013-.603.167-.708.447-.07.187-.158.42-.388.593-.409.307-.755.132-1.008.004-.181-.092-.352-.179-.608-.175-.321.005-.842.501-1.204.949.408.348 1.133 1.162 1.944 2.974.463 1.034.557 1.816.657 2.644.156 1.294.333 2.76 2.05 5.735 2.017 3.494 4.58 4.974 6.112 5.859.197.114.375.217.529.311.124.076.411.215.642.326.167.081.322.156.417.207 1.432.767 3.325 1.093 5.634.971-1.73-.513-4.302-1.561-6.692-3.635-4.007-3.477-6.193-10.232-6.284-10.518a.343.343 0 0 1 .654-.208c.021.065 2.009 6.205 5.522 9.689.223-.675.668-2.243.419-3.333-.102-.448-.2-.836-.286-1.178-.213-.846-.367-1.457-.395-2.176v-.014a.343.343 0 0 1 .686-.013c.024.617.158 1.174.346 1.922l.642-.668a.343.343 0 1 1 .495.475l-.942.98c.04.164.081.337.123.52.34 1.491-.389 3.592-.539 3.996l.009.008a16.928 16.928 0 0 0 3.864 2.502c-.498-.914-1.14-2.406-.666-3.355.315-.631.882-1.111 1.43-1.575.599-.507 1.165-.987 1.378-1.615a.343.343 0 1 1 .65.22c-.274.808-.94 1.372-1.584 1.918-.234.198-.462.391-.666.59.446.144 1.289.384 1.978.391.98.011 2.369-.478 2.383-.483a.343.343 0 0 1 .23.646c-.061.022-1.517.535-2.621.523-.969-.011-2.138-.404-2.447-.514a2.214 2.214 0 0 0-.118.205c-.427.856.669 2.82 1.086 3.441a.345.345 0 0 1 .038.074c1.953.774 3.402.962 3.427.965l.01.001c3.106-.473 4.496-1.418 4.787-1.64zm-2.165-13.574a9.076 9.076 0 0 1 .606-3.033c.447-1.153.554-1.971.319-2.432-.131-.257-.385-.433-.777-.538-.355-.095-.664-.16-.962-.223-.714-.151-1.33-.281-1.993-.739-.56-.386-.421-.925-.338-1.246.036-.139.077-.297.041-.351-.014-.022-.111-.136-.591-.215-.823-.135-1.671.124-2.352.331-.632.192-1.089.332-1.43.142a.63.63 0 0 1-.303-.403c-.104-.394.004-.727.09-.995.121-.375.15-.464-.213-.676-.309-.18-.709-.166-1.133-.151-.653.023-1.454.051-2.029-.711-.452.249-1.991 1.155-3.197 2.53-1.269 1.446-2.239 3.367-2.466 3.833a.46.46 0 0 0 .079.027c.25.063.399-.038.796-.366.243-.2.545-.45.956-.657 1.329-.669 3.18-.998 4.024.272.393.592.455 1.284.509 1.895.066.737.121 1.161.503 1.312.634.251 1.664-.068 2.417-.301.378-.117.705-.218.948-.24l.09-.009c.747-.074 2.3-.227 5.385 2.111.358.271.698.549 1.021.831z" />
        </symbol>

        <symbol id="close" viewBox="0 0 32 32">
<path d="M31.708 25.708c-0-0-0-0-0-0l-9.708-9.708 9.708-9.708c0-0 0-0 0-0 0.105-0.105 0.18-0.227 0.229-0.357 0.133-0.356 0.057-0.771-0.229-1.057l-4.586-4.586c-0.286-0.286-0.702-0.361-1.057-0.229-0.13 0.048-0.252 0.124-0.357 0.228 0 0-0 0-0 0l-9.708 9.708-9.708-9.708c-0-0-0-0-0-0-0.105-0.104-0.227-0.18-0.357-0.228-0.356-0.133-0.771-0.057-1.057 0.229l-4.586 4.586c-0.286 0.286-0.361 0.702-0.229 1.057 0.049 0.13 0.124 0.252 0.229 0.357 0 0 0 0 0 0l9.708 9.708-9.708 9.708c-0 0-0 0-0 0-0.104 0.105-0.18 0.227-0.229 0.357-0.133 0.355-0.057 0.771 0.229 1.057l4.586 4.586c0.286 0.286 0.702 0.361 1.057 0.229 0.13-0.049 0.252-0.124 0.357-0.229 0-0 0-0 0-0l9.708-9.708 9.708 9.708c0 0 0 0 0 0 0.105 0.105 0.227 0.18 0.357 0.229 0.356 0.133 0.771 0.057 1.057-0.229l4.586-4.586c0.286-0.286 0.362-0.702 0.229-1.057-0.049-0.13-0.124-0.252-0.229-0.357z"></path>
</symbol>

<symbol id="icon-logout" viewBox="0 0 32 32">
<path d="M20 28h-16v-24h16v2h4v-6h-24v32h24v-6h-4v2h-0z"></path>
<path d="M24.586 8.586l-2.828 2.828 2.586 2.586h-10.344v4h10.344l-2.586 2.586 2.828 2.828 7.414-7.414-7.414-7.414z"></path>
</symbol>


    </defs>
</svg>